<svg xmlns="http://www.w3.org/2000/svg" xmlns:xlink="http://www.w3.org/1999/xlink" width="500" zoomAndPan="magnify" viewBox="0 0 375 374.999991" height="500" preserveAspectRatio="xMidYMid meet" version="1.0"><defs><clipPath id="id1"><path d="M 155.035156 235.636719 L 198 235.636719 L 198 278.703125 L 155.035156 278.703125 Z M 155.035156 235.636719 " clip-rule="nonzero"/></clipPath><clipPath id="id2"><path d="M 65.300781 96.460938 L 309.800781 96.460938 L 309.800781 249 L 65.300781 249 Z M 65.300781 96.460938 " clip-rule="nonzero"/></clipPath></defs><g clip-path="url(#id1)"><path fill="#ffffff" d="M 176.5 266.945312 C 171.140625 266.945312 166.792969 262.597656 166.792969 257.234375 C 166.792969 251.867188 171.140625 247.519531 176.5 247.519531 C 181.863281 247.519531 186.210938 251.867188 186.210938 257.234375 C 186.210938 262.597656 181.863281 266.945312 176.5 266.945312 Z M 196.730469 250.925781 C 197.1875 250.765625 197.46875 250.324219 197.304688 249.867188 C 196.796875 248.433594 196.144531 247.066406 195.371094 245.789062 C 195.113281 245.371094 194.597656 245.304688 194.179688 245.558594 C 192.304688 246.699219 189.894531 246.621094 188.09375 245.316406 C 187.699219 245.03125 187.136719 244.46875 186.851562 244.074219 C 185.660156 242.421875 185.492188 240.261719 186.347656 238.46875 C 186.558594 238.027344 186.441406 237.519531 186.003906 237.308594 C 184.65625 236.664062 183.234375 236.148438 181.757812 235.789062 C 181.28125 235.671875 180.871094 235.992188 180.753906 236.464844 C 180.167969 238.882812 177.996094 240.675781 175.398438 240.675781 C 172.996094 240.675781 170.957031 239.136719 170.203125 236.992188 C 170.039062 236.535156 169.597656 236.253906 169.136719 236.417969 C 167.707031 236.929688 166.339844 237.578125 165.0625 238.355469 C 164.644531 238.609375 164.582031 239.128906 164.835938 239.546875 C 166.125 241.667969 165.855469 244.46875 164.019531 246.304688 C 162.320312 248.003906 159.796875 248.359375 157.746094 247.382812 C 157.308594 247.171875 156.796875 247.285156 156.589844 247.726562 C 155.941406 249.074219 155.429688 250.496094 155.066406 251.976562 C 154.949219 252.453125 155.273438 252.863281 155.746094 252.980469 C 158.160156 253.566406 159.953125 255.738281 159.953125 258.335938 C 159.953125 260.742188 158.414062 262.78125 156.269531 263.539062 C 155.8125 263.699219 155.53125 264.140625 155.695312 264.601562 C 156.207031 266.03125 156.859375 267.394531 157.640625 268.671875 C 157.894531 269.089844 158.410156 269.15625 158.828125 268.90625 C 160.949219 267.617188 163.746094 267.890625 165.582031 269.722656 C 167.277344 271.421875 167.632812 273.945312 166.660156 275.996094 C 166.449219 276.4375 166.5625 276.945312 167.003906 277.15625 C 168.351562 277.796875 169.769531 278.316406 171.25 278.679688 C 171.722656 278.792969 172.132812 278.472656 172.25 278 C 172.835938 275.585938 175.007812 273.792969 177.601562 273.792969 C 180.007812 273.792969 182.046875 275.328125 182.804688 277.472656 C 182.964844 277.929688 183.40625 278.207031 183.867188 278.046875 C 185.300781 277.539062 186.664062 276.886719 187.941406 276.109375 C 188.359375 275.855469 188.421875 275.339844 188.167969 274.921875 C 187.03125 273.042969 187.109375 270.632812 188.410156 268.832031 C 188.695312 268.4375 189.261719 267.875 189.65625 267.585938 C 191.304688 266.394531 193.464844 266.226562 195.257812 267.085938 C 195.695312 267.292969 196.207031 267.179688 196.417969 266.738281 C 197.0625 265.390625 197.574219 263.96875 197.9375 262.488281 C 198.054688 262.015625 197.730469 261.601562 197.257812 261.488281 C 194.84375 260.898438 193.050781 258.726562 193.050781 256.128906 C 193.050781 253.726562 194.585938 251.683594 196.730469 250.925781 " fill-opacity="1" fill-rule="nonzero"/></g><path fill="#ffffff" d="M 204.75 239.582031 C 200.746094 240.429688 196.808594 237.875 195.957031 233.863281 C 195.105469 229.855469 197.660156 225.917969 201.667969 225.0625 C 205.675781 224.210938 209.609375 226.769531 210.464844 230.78125 C 211.316406 234.785156 208.757812 238.726562 204.75 239.582031 Z M 217.324219 224.398438 C 217.640625 224.203125 217.777344 223.828125 217.585938 223.511719 C 216.976562 222.523438 216.273438 221.605469 215.488281 220.773438 C 215.234375 220.5 214.839844 220.535156 214.566406 220.792969 C 213.34375 221.941406 211.53125 222.261719 209.980469 221.578125 C 209.640625 221.425781 209.128906 221.09375 208.855469 220.84375 C 207.699219 219.800781 207.234375 218.214844 207.589844 216.734375 C 207.675781 216.375 207.507812 216.011719 207.144531 215.925781 C 206.035156 215.65625 204.894531 215.5 203.730469 215.460938 C 203.359375 215.453125 203.101562 215.757812 203.09375 216.128906 C 203.035156 218.027344 201.699219 219.710938 199.757812 220.125 C 197.960938 220.503906 196.195312 219.683594 195.289062 218.199219 C 195.09375 217.882812 194.722656 217.746094 194.402344 217.941406 C 193.414062 218.546875 192.5 219.25 191.667969 220.035156 C 191.394531 220.289062 191.429688 220.6875 191.683594 220.960938 C 192.984375 222.339844 193.226562 224.476562 192.148438 226.140625 C 191.148438 227.679688 189.320312 228.347656 187.632812 227.945312 C 187.269531 227.851562 186.910156 228.019531 186.820312 228.382812 C 186.554688 229.492188 186.394531 230.636719 186.359375 231.800781 C 186.347656 232.171875 186.65625 232.429688 187.027344 232.441406 C 188.925781 232.496094 190.605469 233.835938 191.019531 235.777344 C 191.402344 237.574219 190.578125 239.339844 189.09375 240.246094 C 188.777344 240.441406 188.640625 240.816406 188.835938 241.136719 C 189.441406 242.125 190.148438 243.035156 190.929688 243.867188 C 191.1875 244.140625 191.585938 244.105469 191.855469 243.851562 C 193.238281 242.550781 195.371094 242.3125 197.03125 243.390625 C 198.570312 244.386719 199.238281 246.21875 198.832031 247.902344 C 198.746094 248.265625 198.910156 248.628906 199.277344 248.71875 C 200.382812 248.984375 201.527344 249.144531 202.691406 249.179688 C 203.0625 249.191406 203.316406 248.882812 203.328125 248.515625 C 203.386719 246.617188 204.722656 244.929688 206.660156 244.519531 C 208.457031 244.136719 210.222656 244.960938 211.128906 246.441406 C 211.328125 246.757812 211.699219 246.898438 212.015625 246.703125 C 213.007812 246.09375 213.921875 245.394531 214.753906 244.609375 C 215.027344 244.355469 214.992188 243.957031 214.734375 243.683594 C 213.585938 242.460938 213.261719 240.648438 213.949219 239.097656 C 214.101562 238.753906 214.433594 238.246094 214.679688 237.96875 C 215.726562 236.8125 217.3125 236.347656 218.789062 236.703125 C 219.148438 236.789062 219.511719 236.625 219.601562 236.257812 C 219.867188 235.148438 220.023438 234.007812 220.058594 232.84375 C 220.070312 232.472656 219.765625 232.214844 219.394531 232.203125 C 217.496094 232.148438 215.8125 230.804688 215.402344 228.867188 C 215.019531 227.074219 215.84375 225.304688 217.324219 224.398438 " fill-opacity="1" fill-rule="nonzero"/><g clip-path="url(#id2)"><path fill="#ffffff" d="M 261.023438 147.890625 C 260.101562 147.890625 259.171875 147.917969 258.242188 147.96875 C 253.894531 127.71875 236.082031 113.019531 214.855469 113.019531 C 209.355469 113.019531 204.039062 114.003906 198.992188 115.949219 C 189.804688 103.667969 175.539062 96.460938 160 96.460938 C 134.109375 96.460938 112.871094 116.75 111.328125 142.269531 C 85.160156 145.738281 65.316406 167.984375 65.316406 194.933594 C 65.316406 224.238281 89.144531 248.078125 118.425781 248.078125 L 118.832031 248.082031 C 122.03125 248.089844 129.246094 248.109375 138.789062 248.128906 C 141.660156 248.128906 143.988281 245.800781 143.988281 242.925781 C 143.988281 240.050781 141.660156 237.722656 138.789062 237.722656 C 138.785156 237.722656 138.785156 237.722656 138.78125 237.722656 C 129.257812 237.699219 122.054688 237.679688 118.859375 237.671875 L 118.433594 237.671875 C 94.882812 237.671875 75.71875 218.5 75.71875 194.933594 C 75.71875 171.914062 93.71875 153.164062 116.695312 152.242188 L 121.890625 152.035156 L 121.683594 146.832031 C 121.664062 146.304688 121.640625 145.777344 121.640625 145.25 C 121.640625 124.085938 138.847656 106.871094 160 106.871094 C 173.4375 106.871094 185.660156 113.71875 192.699219 125.1875 L 195.210938 129.277344 L 199.488281 127.101562 C 204.289062 124.667969 209.457031 123.429688 214.855469 123.429688 C 232.476562 123.429688 247.023438 136.648438 248.691406 154.183594 L 249.21875 159.738281 L 254.722656 158.824219 C 256.820312 158.476562 258.945312 158.296875 261.023438 158.296875 C 282.175781 158.296875 299.382812 175.515625 299.382812 196.675781 C 299.382812 218.339844 281.617188 237.5 261.363281 237.671875 L 260.792969 237.703125 C 259.753906 237.75 254.902344 237.816406 236.316406 237.835938 L 236.316406 237.839844 C 233.464844 237.863281 231.152344 240.179688 231.152344 243.039062 C 231.152344 245.902344 233.464844 248.21875 236.316406 248.238281 L 236.316406 248.246094 C 255.464844 248.222656 260.148438 248.152344 261.5625 248.078125 C 287.714844 247.789062 309.785156 224.277344 309.785156 196.675781 C 309.785156 169.773438 287.914062 147.890625 261.023438 147.890625 " fill-opacity="1" fill-rule="nonzero"/></g></svg>