<svg xmlns="http://www.w3.org/2000/svg" xmlns:xlink="http://www.w3.org/1999/xlink" width="500" zoomAndPan="magnify" viewBox="0 0 375 374.999991" height="500" preserveAspectRatio="xMidYMid meet" version="1.0"><defs><clipPath id="id1"><path d="M 78.226562 78.226562 L 296.476562 78.226562 L 296.476562 296.476562 L 78.226562 296.476562 Z M 78.226562 78.226562 " clip-rule="nonzero"/></clipPath></defs><g clip-path="url(#id1)"><path fill="#ffffff" d="M 281.925781 194.628906 C 277.921875 194.628906 274.652344 191.359375 274.652344 187.351562 C 274.652344 183.34375 277.921875 180.078125 281.925781 180.078125 C 285.933594 180.078125 289.203125 183.34375 289.203125 187.351562 C 289.203125 191.359375 285.933594 194.628906 281.925781 194.628906 Z M 243.464844 188.359375 L 187.351562 245.394531 L 131.242188 188.375 C 118.765625 175.644531 118.765625 154.984375 131.242188 142.308594 C 137.292969 136.199219 145.25 132.832031 153.707031 132.832031 C 153.761719 132.832031 153.804688 132.832031 153.847656 132.832031 C 162.1875 132.820312 170.332031 136.15625 176.382812 142.308594 L 184.753906 150.835938 C 186.117188 152.226562 188.589844 152.226562 189.953125 150.835938 L 198.320312 142.308594 C 204.359375 136.171875 212.390625 132.789062 220.914062 132.789062 C 220.914062 132.789062 220.929688 132.789062 220.929688 132.789062 C 229.453125 132.804688 237.453125 136.171875 243.476562 142.308594 C 249.460938 148.363281 252.855469 156.746094 252.8125 165.300781 C 252.8125 165.3125 252.8125 165.328125 252.8125 165.34375 C 252.855469 174.011719 249.53125 182.195312 243.464844 188.359375 Z M 194.628906 281.925781 C 194.628906 285.933594 191.359375 289.203125 187.351562 289.203125 C 183.34375 289.203125 180.078125 285.933594 180.078125 281.925781 C 180.078125 277.921875 183.34375 274.652344 187.351562 274.652344 C 191.359375 274.652344 194.628906 277.921875 194.628906 281.925781 Z M 180.078125 92.777344 C 180.078125 88.769531 183.34375 85.503906 187.351562 85.503906 C 191.359375 85.503906 194.628906 88.769531 194.628906 92.777344 C 194.628906 96.785156 191.359375 100.050781 187.351562 100.050781 C 183.34375 100.050781 180.078125 96.785156 180.078125 92.777344 Z M 267.378906 260.101562 C 271.382812 260.101562 274.652344 263.371094 274.652344 267.378906 C 274.652344 271.382812 271.382812 274.652344 267.378906 274.652344 C 263.371094 274.652344 260.101562 271.382812 260.101562 267.378906 C 260.101562 263.371094 263.371094 260.101562 267.378906 260.101562 Z M 103.691406 271.015625 C 99.683594 271.015625 96.414062 267.746094 96.414062 263.738281 C 96.414062 259.734375 99.683594 256.464844 103.691406 256.464844 C 107.695312 256.464844 110.964844 259.734375 110.964844 263.738281 C 110.964844 267.746094 107.695312 271.015625 103.691406 271.015625 Z M 92.777344 194.628906 C 88.769531 194.628906 85.503906 191.359375 85.503906 187.351562 C 85.503906 183.34375 88.769531 180.078125 92.777344 180.078125 C 96.785156 180.078125 100.050781 183.34375 100.050781 187.351562 C 100.050781 191.359375 96.785156 194.628906 92.777344 194.628906 Z M 107.328125 114.601562 C 103.320312 114.601562 100.050781 111.335938 100.050781 107.328125 C 100.050781 103.320312 103.320312 100.050781 107.328125 100.050781 C 111.335938 100.050781 114.601562 103.320312 114.601562 107.328125 C 114.601562 111.335938 111.335938 114.601562 107.328125 114.601562 Z M 271.015625 103.691406 C 275.023438 103.691406 278.289062 106.957031 278.289062 110.964844 C 278.289062 114.972656 275.023438 118.238281 271.015625 118.238281 C 267.007812 118.238281 263.738281 114.972656 263.738281 110.964844 C 263.738281 106.957031 267.007812 103.691406 271.015625 103.691406 Z M 281.925781 172.800781 C 275.164062 172.800781 269.523438 177.464844 267.890625 183.714844 L 255.699219 183.714844 C 258.597656 178.089844 260.117188 171.820312 260.089844 165.3125 C 260.132812 154.855469 255.96875 144.597656 248.648438 137.207031 C 242.796875 131.242188 235.394531 127.433594 227.363281 126.082031 L 227.363281 121.878906 C 227.363281 117.871094 230.632812 114.601562 234.640625 114.601562 L 256.976562 114.601562 C 258.609375 120.855469 264.25 125.515625 271.015625 125.515625 C 279.042969 125.515625 285.566406 118.992188 285.566406 110.964844 C 285.566406 102.9375 279.042969 96.414062 271.015625 96.414062 C 264.25 96.414062 258.609375 101.074219 256.976562 107.328125 L 234.640625 107.328125 C 226.613281 107.328125 220.089844 113.847656 220.089844 121.878906 L 220.089844 125.558594 C 209.917969 125.769531 200.367188 129.863281 193.136719 137.207031 L 190.988281 139.398438 L 190.988281 106.816406 C 197.242188 105.183594 201.902344 99.539062 201.902344 92.777344 C 201.902344 84.75 195.378906 78.226562 187.351562 78.226562 C 179.324219 78.226562 172.800781 84.75 172.800781 92.777344 C 172.800781 99.539062 177.464844 105.183594 183.714844 106.816406 L 183.714844 139.398438 L 181.570312 137.207031 C 175.191406 130.714844 167.019531 126.765625 158.253906 125.800781 L 158.253906 118.238281 C 158.253906 110.210938 151.730469 103.691406 143.703125 103.691406 L 121.367188 103.691406 C 119.730469 97.4375 114.089844 92.777344 107.328125 92.777344 C 99.300781 92.777344 92.777344 99.300781 92.777344 107.328125 C 92.777344 115.355469 99.300781 121.878906 107.328125 121.878906 C 114.089844 121.878906 119.730469 117.21875 121.367188 110.964844 L 143.703125 110.964844 C 147.710938 110.964844 150.976562 114.234375 150.976562 118.238281 L 150.976562 125.683594 C 141.613281 126.339844 132.847656 130.347656 126.054688 137.207031 C 113.707031 149.753906 111.378906 168.710938 119.035156 183.714844 L 106.816406 183.714844 C 105.183594 177.464844 99.539062 172.800781 92.777344 172.800781 C 84.75 172.800781 78.226562 179.324219 78.226562 187.351562 C 78.226562 195.378906 84.75 201.902344 92.777344 201.902344 C 99.539062 201.902344 105.183594 197.242188 106.816406 190.988281 L 123.851562 190.988281 C 124.5625 191.828125 125.273438 192.667969 126.054688 193.460938 L 147.339844 215.101562 L 147.339844 252.828125 C 147.339844 256.835938 144.070312 260.101562 140.066406 260.101562 L 117.726562 260.101562 C 116.09375 253.851562 110.453125 249.191406 103.691406 249.191406 C 95.660156 249.191406 89.140625 255.710938 89.140625 263.738281 C 89.140625 271.769531 95.660156 278.289062 103.691406 278.289062 C 110.453125 278.289062 116.09375 273.628906 117.726562 267.378906 L 140.066406 267.378906 C 148.09375 267.378906 154.613281 260.855469 154.613281 252.828125 L 154.613281 222.492188 L 182.40625 250.753906 C 182.804688 251.152344 183.246094 251.476562 183.714844 251.777344 L 183.714844 267.890625 C 177.464844 269.523438 172.800781 275.164062 172.800781 281.925781 C 172.800781 289.957031 179.324219 296.476562 187.351562 296.476562 C 195.378906 296.476562 201.902344 289.957031 201.902344 281.925781 C 201.902344 275.164062 197.242188 269.523438 190.988281 267.890625 L 190.988281 251.777344 C 191.457031 251.476562 191.898438 251.152344 192.296875 250.753906 L 216.453125 226.199219 L 216.453125 256.464844 C 216.453125 264.492188 222.972656 271.015625 231.003906 271.015625 L 253.339844 271.015625 C 254.972656 277.265625 260.613281 281.925781 267.378906 281.925781 C 275.40625 281.925781 281.925781 275.40625 281.925781 267.378906 C 281.925781 259.347656 275.40625 252.828125 267.378906 252.828125 C 260.613281 252.828125 254.972656 257.488281 253.339844 263.738281 L 231.003906 263.738281 C 226.996094 263.738281 223.726562 260.472656 223.726562 256.464844 L 223.726562 218.796875 L 248.648438 193.460938 C 249.429688 192.667969 250.15625 191.828125 250.867188 190.988281 L 267.890625 190.988281 C 269.523438 197.242188 275.164062 201.902344 281.925781 201.902344 C 289.957031 201.902344 296.476562 195.378906 296.476562 187.351562 C 296.476562 179.324219 289.957031 172.800781 281.925781 172.800781 " fill-opacity="1" fill-rule="nonzero"/></g><path fill="#ffffff" d="M 205.539062 194.628906 L 194.628906 194.628906 C 192.625 194.628906 190.988281 196.261719 190.988281 198.265625 L 190.988281 209.175781 L 183.714844 209.175781 L 183.714844 198.265625 C 183.714844 196.261719 182.082031 194.628906 180.078125 194.628906 L 169.164062 194.628906 L 169.164062 187.351562 L 180.078125 187.351562 C 182.082031 187.351562 183.714844 185.71875 183.714844 183.714844 L 183.714844 172.800781 L 190.988281 172.800781 L 190.988281 183.714844 C 190.988281 185.71875 192.625 187.351562 194.628906 187.351562 L 205.539062 187.339844 Z M 205.539062 180.078125 L 198.265625 180.078125 L 198.265625 172.800781 C 198.265625 168.796875 194.996094 165.527344 190.988281 165.527344 L 183.714844 165.527344 C 179.707031 165.527344 176.441406 168.796875 176.441406 172.800781 L 176.441406 180.078125 L 169.164062 180.078125 C 165.15625 180.078125 161.890625 183.34375 161.890625 187.351562 L 161.890625 194.628906 C 161.890625 198.632812 165.15625 201.902344 169.164062 201.902344 L 176.441406 201.902344 L 176.441406 209.175781 C 176.441406 213.183594 179.707031 216.453125 183.714844 216.453125 L 190.988281 216.453125 C 194.996094 216.453125 198.265625 213.183594 198.265625 209.175781 L 198.265625 201.902344 L 205.539062 201.902344 C 209.546875 201.902344 212.816406 198.632812 212.816406 194.628906 L 212.816406 187.351562 C 212.816406 183.34375 209.546875 180.078125 205.539062 180.078125 " fill-opacity="1" fill-rule="nonzero"/></svg>