<svg xmlns="http://www.w3.org/2000/svg" xmlns:xlink="http://www.w3.org/1999/xlink" width="500" zoomAndPan="magnify" viewBox="0 0 375 374.999991" height="500" preserveAspectRatio="xMidYMid meet" version="1.0"><defs><clipPath id="id1"><path d="M 70.035156 81.78125 L 304.785156 81.78125 L 304.785156 293.28125 L 70.035156 293.28125 Z M 70.035156 81.78125 " clip-rule="nonzero"/></clipPath></defs><path fill="#ffffff" d="M 198.476562 200.339844 C 191.339844 197.660156 183.484375 197.660156 176.347656 200.339844 C 174.328125 201.101562 173.304688 203.351562 174.054688 205.386719 C 174.816406 207.40625 177.078125 208.429688 179.097656 207.683594 C 184.445312 205.664062 190.375 205.664062 195.726562 207.683594 C 196.183594 207.835938 196.640625 207.925781 197.101562 207.925781 C 198.691406 207.925781 200.171875 206.960938 200.769531 205.386719 C 201.515625 203.351562 200.492188 201.101562 198.476562 200.339844 " fill-opacity="1" fill-rule="nonzero"/><path fill="#ffffff" d="M 207.84375 187.730469 C 195.050781 181.089844 179.769531 181.089844 166.976562 187.730469 C 165.050781 188.726562 164.304688 191.097656 165.296875 193.023438 C 166.289062 194.9375 168.675781 195.6875 170.585938 194.691406 C 181.128906 189.214844 193.691406 189.214844 204.238281 194.691406 C 204.816406 195 205.429688 195.136719 206.039062 195.136719 C 207.445312 195.136719 208.824219 194.355469 209.523438 193.023438 C 210.519531 191.097656 209.769531 188.726562 207.84375 187.730469 " fill-opacity="1" fill-rule="nonzero"/><path fill="#ffffff" d="M 162.054688 182.054688 C 177.691406 172.554688 197.128906 172.554688 212.765625 182.054688 C 213.40625 182.4375 214.109375 182.621094 214.796875 182.621094 C 216.113281 182.621094 217.410156 181.964844 218.144531 180.738281 C 219.261719 178.886719 218.679688 176.484375 216.832031 175.355469 C 198.691406 164.339844 176.132812 164.339844 157.992188 175.355469 C 156.140625 176.484375 155.5625 178.886719 156.675781 180.738281 C 157.792969 182.589844 160.207031 183.171875 162.054688 182.054688 " fill-opacity="1" fill-rule="nonzero"/><g clip-path="url(#id1)"><path fill="#ffffff" d="M 93.511719 171.867188 C 102.148438 171.867188 109.164062 178.886719 109.164062 187.53125 C 109.164062 196.175781 102.148438 203.199219 93.511719 203.199219 C 84.878906 203.199219 77.863281 196.175781 77.863281 187.53125 C 77.863281 178.886719 84.878906 171.867188 93.511719 171.867188 Z M 132.699219 127.4375 C 135.128906 128.292969 137.726562 128.78125 140.460938 128.78125 C 143.183594 128.78125 145.796875 128.292969 148.226562 127.4375 L 160.636719 148.945312 C 157.914062 150.84375 155.363281 153.015625 153.054688 155.480469 C 145.824219 163.238281 141.515625 173.105469 140.644531 183.617188 L 116.636719 183.617188 C 115.671875 177.941406 112.707031 172.953125 108.472656 169.433594 Z M 124.8125 105.28125 C 124.8125 96.636719 131.828125 89.617188 140.460938 89.617188 C 149.097656 89.617188 156.113281 96.636719 156.113281 105.28125 C 156.113281 113.925781 149.097656 120.949219 140.460938 120.949219 C 131.828125 120.949219 124.8125 113.925781 124.8125 105.28125 Z M 163.585938 109.199219 L 211.238281 109.199219 C 212.214844 115.011719 215.332031 120.109375 219.75 123.640625 L 207.386719 145.078125 C 201.179688 142.140625 194.363281 140.53125 187.410156 140.53125 C 180.457031 140.53125 173.640625 142.140625 167.4375 145.078125 L 155.070312 123.640625 C 159.488281 120.109375 162.605469 115.011719 163.585938 109.199219 Z M 234.359375 89.617188 C 242.996094 89.617188 250.011719 96.636719 250.011719 105.28125 C 250.011719 113.925781 242.996094 120.949219 234.359375 120.949219 C 225.726562 120.949219 218.710938 113.925781 218.710938 105.28125 C 218.710938 96.636719 225.726562 89.617188 234.359375 89.617188 Z M 266.347656 169.433594 C 262.113281 172.953125 259.148438 177.941406 258.1875 183.617188 L 234.175781 183.617188 C 233.304688 173.105469 228.996094 163.238281 221.765625 155.480469 C 219.460938 153.015625 216.90625 150.84375 214.1875 148.945312 L 226.597656 127.4375 C 229.027344 128.292969 231.640625 128.78125 234.359375 128.78125 C 237.097656 128.78125 239.695312 128.292969 242.125 127.4375 Z M 281.308594 171.867188 C 289.945312 171.867188 296.960938 178.886719 296.960938 187.53125 C 296.960938 196.175781 289.945312 203.199219 281.308594 203.199219 C 272.675781 203.199219 265.660156 196.175781 265.660156 187.53125 C 265.660156 178.886719 272.675781 171.867188 281.308594 171.867188 Z M 242.125 247.628906 C 239.695312 246.773438 237.097656 246.28125 234.359375 246.28125 C 231.640625 246.28125 229.027344 246.773438 226.597656 247.628906 L 214.1875 226.101562 C 216.90625 224.21875 219.460938 222.046875 221.765625 219.585938 C 228.996094 211.828125 233.304688 201.960938 234.175781 191.449219 L 258.1875 191.449219 C 259.148438 197.125 262.113281 202.113281 266.347656 205.632812 Z M 250.011719 269.78125 C 250.011719 278.425781 242.996094 285.449219 234.359375 285.449219 C 225.726562 285.449219 218.710938 278.425781 218.710938 269.78125 C 218.710938 261.136719 225.726562 254.117188 234.359375 254.117188 C 242.996094 254.117188 250.011719 261.136719 250.011719 269.78125 Z M 211.238281 265.867188 L 163.585938 265.867188 C 162.605469 260.050781 159.488281 254.957031 155.070312 251.421875 L 167.4375 229.988281 C 173.640625 232.925781 180.457031 234.53125 187.410156 234.53125 C 194.363281 234.53125 201.179688 232.925781 207.386719 229.988281 L 219.75 251.421875 C 215.332031 254.957031 212.214844 260.050781 211.238281 265.867188 Z M 140.460938 285.449219 C 131.828125 285.449219 124.8125 278.425781 124.8125 269.78125 C 124.8125 261.136719 131.828125 254.117188 140.460938 254.117188 C 149.097656 254.117188 156.113281 261.136719 156.113281 269.78125 C 156.113281 278.425781 149.097656 285.449219 140.460938 285.449219 Z M 148.285156 187.53125 C 148.285156 177.574219 152.015625 168.085938 158.769531 160.835938 C 166.273438 152.789062 176.453125 148.367188 187.410156 148.367188 C 198.367188 148.367188 208.546875 152.789062 216.050781 160.835938 C 222.804688 168.085938 226.535156 177.574219 226.535156 187.53125 C 226.535156 197.492188 222.804688 206.976562 216.050781 214.230469 C 208.546875 222.277344 198.367188 226.699219 187.410156 226.699219 C 176.453125 226.699219 166.273438 222.277344 158.769531 214.230469 C 152.015625 206.976562 148.285156 197.492188 148.285156 187.53125 Z M 108.472656 205.632812 C 112.707031 202.113281 115.671875 197.125 116.636719 191.449219 L 140.644531 191.449219 C 141.515625 201.960938 145.824219 211.828125 153.054688 219.585938 C 155.363281 222.046875 157.914062 224.21875 160.636719 226.101562 L 148.226562 247.628906 C 145.796875 246.773438 143.183594 246.28125 140.460938 246.28125 C 137.726562 246.28125 135.128906 246.773438 132.699219 247.628906 Z M 93.511719 211.03125 C 96.386719 211.03125 99.136719 210.480469 101.6875 209.53125 L 125.851562 251.421875 C 120.457031 255.738281 116.988281 262.347656 116.988281 269.78125 C 116.988281 282.742188 127.515625 293.28125 140.460938 293.28125 C 152.078125 293.28125 161.703125 284.792969 163.585938 273.699219 L 211.238281 273.699219 C 213.117188 284.792969 222.746094 293.28125 234.359375 293.28125 C 247.304688 293.28125 257.835938 282.742188 257.835938 269.78125 C 257.835938 262.347656 254.367188 255.738281 248.96875 251.421875 L 273.132812 209.53125 C 275.683594 210.480469 278.4375 211.03125 281.308594 211.03125 C 294.253906 211.03125 304.785156 200.492188 304.785156 187.53125 C 304.785156 174.574219 294.253906 164.03125 281.308594 164.03125 C 278.4375 164.03125 275.683594 164.582031 273.132812 165.53125 L 248.96875 123.640625 C 254.367188 119.328125 257.835938 112.71875 257.835938 105.28125 C 257.835938 92.324219 247.304688 81.78125 234.359375 81.78125 C 222.746094 81.78125 213.117188 90.273438 211.238281 101.367188 L 163.585938 101.367188 C 161.703125 90.273438 152.078125 81.78125 140.460938 81.78125 C 127.515625 81.78125 116.988281 92.324219 116.988281 105.28125 C 116.988281 112.71875 120.457031 119.328125 125.851562 123.640625 L 101.6875 165.53125 C 99.136719 164.582031 96.386719 164.03125 93.511719 164.03125 C 80.566406 164.03125 70.039062 174.574219 70.039062 187.53125 C 70.039062 200.492188 80.566406 211.03125 93.511719 211.03125 " fill-opacity="1" fill-rule="nonzero"/></g></svg>