<svg id="Layer_1" data-name="Layer 1" xmlns="http://www.w3.org/2000/svg" xmlns:xlink="http://www.w3.org/1999/xlink" viewBox="0 0 788.79 788.79"><defs><style>.cls-1{fill:url(#linear-gradient);}.cls-2{fill:url(#linear-gradient-2);}.cls-3{fill:url(#linear-gradient-3);}.cls-4{fill:#f7934b;}.cls-5{fill:#ec6124;}.cls-6{fill:url(#linear-gradient-6);}.cls-7{fill:#fbb777;}.cls-8{fill:#f16823;}.cls-9{fill:#f9a767;}</style><linearGradient id="linear-gradient" x1="391.81" y1="772.81" x2="391.81" y2="22.06" gradientUnits="userSpaceOnUse"><stop offset="0" stop-color="#010101"/><stop offset="1" stop-color="#1f262c"/></linearGradient><linearGradient id="linear-gradient-2" x1="342.05" y1="439.4" x2="342.45" y2="439.4" gradientUnits="userSpaceOnUse"><stop offset="0" stop-color="#662d91"/><stop offset="1" stop-color="#27aae1"/></linearGradient><linearGradient id="linear-gradient-3" x1="342.45" y1="515.6" x2="343.04" y2="515.6" xlink:href="#linear-gradient-2"/><linearGradient id="linear-gradient-6" x1="-628.15" y1="402.81" x2="-468.22" y2="402.81" gradientTransform="matrix(-1, 0, 0, 1, -49.31, 0)" gradientUnits="userSpaceOnUse"><stop offset="0.01" stop-color="#f16823"/><stop offset="0.28" stop-color="#f16a25"/><stop offset="0.42" stop-color="#f26f2d"/><stop offset="0.54" stop-color="#f2783a"/><stop offset="0.63" stop-color="#f4854d"/><stop offset="0.72" stop-color="#f59666"/><stop offset="0.8" stop-color="#f7ab84"/><stop offset="0.87" stop-color="#f9c4a9"/><stop offset="0.94" stop-color="#fce0d1"/><stop offset="1" stop-color="#fff"/></linearGradient></defs><rect class="cls-1" x="16.44" y="22.06" width="750.74" height="750.74" rx="71.96"/><path class="cls-2" d="M342.05,437.62c.15,1.14.29,2.33.4,3.56C342.33,440,342.2,438.76,342.05,437.62Z"/><path class="cls-3" d="M342.45,441.18q.58,6.18.59,14V590h0V455.17Q343,447.35,342.45,441.18Z"/><path class="cls-2" d="M342.05,437.62c.15,1.14.29,2.33.4,3.56C342.33,440,342.2,438.76,342.05,437.62Z"/><path class="cls-3" d="M342.45,441.18q.58,6.18.59,14V590h0V455.17Q343,447.35,342.45,441.18Z"/><path class="cls-4" d="M392.31,512.34V590H363.24v-89q0-64.95-6.91-85.48T332,392q17.66-5.57,24.18-21.68t6.52-46.92q0-30.79-4.12-49.89t-17.17-29.75q-13.06-10.65-39.54-10.65H254.49l-46.2.32V213.89H323.92q29.49,0,44,11.86t19.12,33.13q4.59,21.27,4.6,55.57T384.4,366.7c-4.84,12-13.86,21.15-27,25.28,13,2.28,22.05,9.91,27.18,25.15S392.31,464.11,392.31,512.34Z"/><path class="cls-5" d="M208.29,233.41l46.2-.32V368H317.6q10.9,0,16.14-4.92T341,346.18a160.74,160.74,0,0,0,1.75-19.89q.28-7.44.29-16.66v-2.34c0-1.91,0-3.76-.05-5.55,0-1.19,0-2.35-.08-3.49s-.07-2.24-.12-3.32-.1-2.13-.16-3.16-.12-2-.2-3-.15-1.92-.24-2.83-.18-1.81-.28-2.67-.2-1.69-.32-2.5-.23-1.58-.36-2.33-.26-1.47-.4-2.17a32.48,32.48,0,0,0-2.92-9q-5.13-9.4-23.73-9.4H254.49V233.09h55.34q26.49,0,39.54,10.65t17.17,29.75q4.13,19.1,4.12,49.89t-6.52,46.92Q357.62,386.41,340,392q17.46,3.07,24.37,23.61t6.91,85.48v89H343V455.17q0-7.82-.59-14c-.11-1.23-.25-2.42-.4-3.56q-1.44-10.78-5-15.68c-4-5.48-12-9.22-24.15-9.51H254.49v179.3l-46.2-.86V233.41"/><path class="cls-6" d="M521.93,412.41c1.38.17,10.37,1.63,10.37,10.64V590.87h46.54V214.74H532.3V358.16c0,9.77-10.55,10.67-10.55,10.67H475.81c-1.41-.17-10.35-1.65-10.35-10.65V214.74H418.91V590.87h46.55V423c0-8.69,8.37-10.36,10.19-10.62.06,0,14.72-2,46.28,0"/><path class="cls-5" d="M578,214.74h-46.2V358.16s.56,8.77-9.66,10.55a9.82,9.82,0,0,1-1.62.12h-44a7.86,7.86,0,0,1-1.94-.23c-2.68-.65-9.14-3-9.14-10.42V214.74H443.2V590.87h22.26V423s-.6-8.87,10.12-10.62c4.43-.72,13.07-.85,21.67-.74,12.17.14,24.27.74,24.27.74s10,.59,10.29,10.64,0,167.82,0,167.82H578Z"/><rect class="cls-7" x="418.91" y="214.75" width="9.85" height="376.13"/><rect class="cls-4" x="428.76" y="214.75" width="15.27" height="376.13"/><polygon class="cls-8" points="175.7 427.92 175.7 485.65 73.66 539.38 73.66 479.42 175.7 427.92"/><polygon class="cls-9" points="74.66 479.42 176.7 533.14 176.7 590.87 74.66 539.38 74.66 479.42"/><path class="cls-7" d="M385.3,417.13c-5.13-15.24-14.18-23-27.14-25.29,13.1-4.13,22.08-13.18,26.92-25.15s7.27-29.38,7.27-52.25-1.53-41.38-4.59-55.57-9.44-25.21-19.13-33.12-24.37-11.86-44-11.86h-8.85q29.49,0,44,11.86t19.12,33.12q4.59,21.28,4.6,55.57t-7.27,52.25c-4.84,12-13.82,21-26.93,25.15,13,2.28,22,10.05,27.15,25.29s7.69,47,7.69,95.21V590H393V512.34Q393,440,385.3,417.13Z"/><polygon class="cls-8" points="611.44 213.89 611.44 271.62 713.48 325.34 713.48 265.38 611.44 213.89"/><polygon class="cls-9" points="713.48 265.38 611.44 319.11 611.44 376.84 713.48 325.34 713.48 265.38"/><path class="cls-8" d="M675.91,743.08H109.23A62.63,62.63,0,0,1,46.6,680.45V113.77a62.63,62.63,0,0,1,62.63-62.63H675.91a62.63,62.63,0,0,1,62.63,62.63V680.45A62.63,62.63,0,0,1,675.91,743.08ZM109.23,56.35A57.43,57.43,0,0,0,51.8,113.77V680.45a57.43,57.43,0,0,0,57.43,57.43H675.91a57.43,57.43,0,0,0,57.43-57.43V113.77a57.42,57.42,0,0,0-57.43-57.42Z"/></svg>