<svg id="Layer_1" data-name="Layer 1" xmlns="http://www.w3.org/2000/svg" xmlns:xlink="http://www.w3.org/1999/xlink" viewBox="0 0 788.79 788.79"><defs><style>.cls-1{fill:#231f20;}.cls-2{fill:#f16823;}.cls-3{fill:url(#linear-gradient);}.cls-4{fill:url(#linear-gradient-2);}.cls-5{fill:#f7934b;}.cls-6{fill:#ec6124;}.cls-7{fill:url(#linear-gradient-5);}.cls-8{fill:#fbb777;}.cls-9{fill:#f9a767;}</style><linearGradient id="linear-gradient" x1="349.58" y1="440.15" x2="349.97" y2="440.15" gradientUnits="userSpaceOnUse"><stop offset="0" stop-color="#662d91"/><stop offset="1" stop-color="#27aae1"/></linearGradient><linearGradient id="linear-gradient-2" x1="349.97" y1="514.23" x2="350.54" y2="514.23" xlink:href="#linear-gradient"/><linearGradient id="linear-gradient-5" x1="-629.08" y1="404.58" x2="-473.6" y2="404.58" gradientTransform="matrix(-1, 0, 0, 1, -49.31, 0)" gradientUnits="userSpaceOnUse"><stop offset="0.01" stop-color="#f16823"/><stop offset="0.28" stop-color="#f16a25"/><stop offset="0.42" stop-color="#f26f2d"/><stop offset="0.54" stop-color="#f2783a"/><stop offset="0.63" stop-color="#f4854d"/><stop offset="0.72" stop-color="#f59666"/><stop offset="0.8" stop-color="#f7ab84"/><stop offset="0.87" stop-color="#f9c4a9"/><stop offset="0.94" stop-color="#fce0d1"/><stop offset="1" stop-color="#fff"/></linearGradient></defs><rect class="cls-1" x="11.75" y="13.74" width="767.38" height="767.38" rx="375.37"/><path class="cls-2" d="M395.44,749.74h0C200.13,749.74,41.8,591.41,41.8,396.11h0c0-195.3,158.33-353.63,353.64-353.63h0c195.31,0,353.64,158.33,353.64,353.63h0C749.08,591.41,590.75,749.74,395.44,749.74Zm0-701.95C203.07,47.79,47.12,203.73,47.12,396.1h0c0,192.37,156,348.32,348.32,348.32h0c192.37,0,348.32-155.95,348.32-348.32h0c0-192.37-156-348.31-348.32-348.31Z"/><path class="cls-3" d="M349.58,438.42c.15,1.11.28,2.27.39,3.46C349.85,440.69,349.73,439.53,349.58,438.42Z"/><path class="cls-4" d="M350,441.88q.57,6,.57,13.6V586.59h0V455.48Q350.53,447.89,350,441.88Z"/><path class="cls-3" d="M349.58,438.42c.15,1.11.28,2.27.39,3.46C349.85,440.69,349.73,439.53,349.58,438.42Z"/><path class="cls-4" d="M350,441.88q.57,6,.57,13.6V586.59h0V455.48Q350.53,447.89,350,441.88Z"/><path class="cls-5" d="M398.44,511.06v75.53H370.18V500.1q0-63.14-6.72-83.1t-23.69-22.95q17.16-5.42,23.51-21.08t6.34-45.61q0-29.94-4-48.5t-16.69-28.92q-12.71-10.37-38.44-10.36h-46l-44.92.31v-19H332q28.68,0,42.81,11.53t18.59,32.21q4.45,20.67,4.47,54t-7.07,50.79c-4.7,11.63-13.47,20.57-26.21,24.58,12.6,2.22,21.44,9.63,26.42,24.45S398.44,464.17,398.44,511.06Z"/><path class="cls-6" d="M219.54,239.89l44.92-.31V370.72h61.35q10.6,0,15.69-4.78t7.06-16.41a155.61,155.61,0,0,0,1.7-19.34c.18-4.82.28-10.23.28-16.2v-2.27c0-1.86,0-3.66-.05-5.4,0-1.15,0-2.28-.07-3.39s-.07-2.18-.12-3.23-.1-2.07-.16-3.07-.11-2-.19-2.91-.15-1.86-.23-2.75-.18-1.76-.28-2.59-.19-1.65-.31-2.43-.22-1.54-.35-2.27-.25-1.43-.39-2.11a31.23,31.23,0,0,0-2.84-8.71q-5-9.15-23.06-9.14h-58V239.58h53.8q25.74,0,38.44,10.36t16.69,28.92q4,18.56,4,48.5T371.05,373q-6.33,15.66-23.5,21.08,17,3,23.69,22.95T378,500.1v86.49H350.54V455.48q0-7.59-.57-13.6c-.11-1.19-.24-2.35-.39-3.46q-1.4-10.49-4.86-15.24c-3.88-5.33-11.71-9-23.48-9.25H264.46V588.24l-44.92-.83V239.89"/><path class="cls-7" d="M524.45,413.92c1.34.16,10.08,1.58,10.08,10.34V587.41h45.25V221.75H534.53V361.18c0,9.5-10.26,10.37-10.26,10.37H479.61c-1.37-.17-10.06-1.61-10.06-10.35V221.75H424.3V587.41h45.25V424.24c0-8.45,8.13-10.07,9.9-10.32.07,0,14.32-1.9,45,0"/><path class="cls-6" d="M579,221.75H534.05V361.18s.55,8.52-9.39,10.25a9.23,9.23,0,0,1-1.57.12H480.32a8,8,0,0,1-1.89-.22c-2.6-.63-8.88-2.91-8.88-10.13V221.75H447.91V587.41h21.64V424.24s-.58-8.62,9.83-10.32c4.32-.71,12.71-.83,21.07-.73,11.84.14,23.6.73,23.6.73s9.7.56,10,10.34,0,163.15,0,163.15H579Z"/><rect class="cls-8" x="424.3" y="221.75" width="9.58" height="365.66"/><rect class="cls-5" x="433.87" y="221.75" width="14.84" height="365.66"/><polygon class="cls-2" points="187.86 428.99 187.86 485.12 88.65 537.35 88.65 479.06 187.86 428.99"/><polygon class="cls-9" points="89.62 479.06 188.83 531.28 188.83 587.41 89.62 537.35 89.62 479.06"/><path class="cls-8" d="M391.62,418.51c-5-14.83-13.78-22.37-26.39-24.59,12.74-4,21.47-12.82,26.18-24.45s7.06-28.57,7.06-50.8-1.49-40.23-4.46-54-9.18-24.51-18.6-32.2-23.68-11.53-42.8-11.53H324q28.67,0,42.8,11.53t18.59,32.2q4.47,20.69,4.47,54t-7.07,50.8c-4.71,11.63-13.43,20.44-26.17,24.45,12.6,2.22,21.4,9.76,26.38,24.59s7.48,45.67,7.48,92.55v75.52h8.61V511.06Q399.1,440.74,391.62,418.51Z"/><polygon class="cls-2" points="611.46 220.92 611.46 277.04 710.67 329.27 710.67 270.98 611.46 220.92"/><polygon class="cls-9" points="710.67 270.98 611.46 323.21 611.46 379.34 710.67 329.27 710.67 270.98"/></svg>