<svg xmlns="http://www.w3.org/2000/svg" xmlns:xlink="http://www.w3.org/1999/xlink" width="500" zoomAndPan="magnify" viewBox="0 0 375 374.999991" height="500" preserveAspectRatio="xMidYMid meet" version="1.0"><defs><clipPath id="id1"><path d="M 56.609375 116.492188 L 318.359375 116.492188 L 318.359375 258.242188 L 56.609375 258.242188 Z M 56.609375 116.492188 " clip-rule="nonzero"/></clipPath></defs><g clip-path="url(#id1)"><path fill="#ffffff" d="M 207.570312 179.398438 C 206.746094 177.890625 207.226562 176.035156 208.671875 175.210938 C 210.1875 174.386719 212.042969 174.867188 212.867188 176.308594 L 228.554688 203.503906 L 244.238281 176.308594 C 244.789062 175.347656 245.824219 174.730469 246.921875 174.730469 L 264.742188 174.730469 C 271.484375 174.730469 276.917969 180.15625 276.917969 186.886719 C 276.917969 193.617188 271.484375 199.042969 264.742188 199.042969 L 260.132812 199.042969 L 275.542969 208.929688 C 276.988281 209.824219 277.398438 211.746094 276.4375 213.1875 C 275.816406 214.082031 274.855469 214.632812 273.824219 214.632812 C 273.273438 214.632812 272.652344 214.492188 272.171875 214.148438 L 247.953125 198.5625 C 246.785156 197.804688 246.304688 196.429688 246.648438 195.058594 C 246.992188 193.683594 248.230469 192.859375 249.605469 192.859375 L 264.742188 192.859375 C 268.042969 192.859375 270.726562 190.183594 270.726562 186.886719 C 270.726562 183.589844 268.042969 180.910156 264.742188 180.910156 L 248.710938 180.910156 L 231.375 211.195312 C 230.824219 212.160156 229.792969 212.777344 228.691406 212.777344 C 227.589844 212.777344 226.558594 212.160156 226.007812 211.195312 Z M 93.164062 208.726562 C 94.472656 208.726562 95.570312 207.625 95.570312 206.320312 L 95.570312 196.363281 C 95.570312 195.058594 94.472656 193.960938 93.164062 193.960938 C 91.855469 193.960938 90.757812 195.058594 90.757812 196.363281 L 90.757812 206.320312 C 90.757812 207.625 91.855469 208.726562 93.164062 208.726562 Z M 93.164062 185.441406 C 94.472656 185.441406 95.570312 184.34375 95.570312 183.039062 L 95.570312 170.472656 C 95.570312 166.144531 98.324219 162.4375 102.3125 161.40625 C 106.714844 160.308594 111.1875 159.277344 115.730469 158.382812 C 117.035156 158.109375 117.863281 156.875 117.585938 155.570312 C 117.3125 154.265625 116.074219 153.441406 114.765625 153.714844 C 110.226562 154.675781 105.617188 155.707031 101.214844 156.804688 C 95.089844 158.316406 90.824219 163.945312 90.824219 170.539062 L 90.824219 183.039062 C 90.757812 184.414062 91.855469 185.441406 93.164062 185.441406 Z M 56.632812 206.113281 L 56.632812 183.3125 C 56.632812 177.132812 60.074219 171.570312 65.644531 168.824219 L 74.933594 164.289062 L 74.933594 157.078125 C 74.933594 150.488281 79.199219 144.855469 85.320312 143.34375 C 107.886719 137.78125 132.515625 134.074219 157.695312 132.492188 L 159.757812 125.695312 C 161.410156 120.199219 166.433594 116.492188 172.140625 116.492188 L 201.722656 116.492188 C 207.503906 116.492188 212.457031 120.199219 214.105469 125.695312 L 216.171875 132.492188 C 241.417969 134.074219 266.046875 137.78125 288.613281 143.34375 C 294.738281 144.855469 298.933594 150.488281 298.933594 157.078125 L 298.933594 163.808594 L 309.320312 168.890625 C 314.894531 171.640625 318.332031 177.203125 318.332031 183.382812 L 318.332031 206.183594 C 318.332031 212.363281 314.894531 217.925781 309.320312 220.675781 L 298.933594 225.757812 L 298.933594 233.242188 C 298.933594 239.835938 294.667969 245.46875 288.542969 246.976562 C 264.949219 252.816406 239.5625 256.523438 213.074219 258.035156 C 212.9375 258.035156 212.800781 258.035156 212.664062 258.035156 C 209.222656 258.035156 206.265625 255.492188 205.578125 251.992188 C 204.890625 248.625 201.585938 246.152344 197.597656 246.152344 L 176.199219 246.152344 C 172.28125 246.152344 168.910156 248.625 168.21875 251.992188 C 167.464844 255.632812 164.300781 258.242188 160.722656 258.035156 C 134.234375 256.523438 108.847656 252.816406 85.253906 246.976562 C 79.128906 245.46875 74.863281 239.835938 74.863281 233.242188 L 74.863281 225.277344 L 65.578125 220.742188 C 60.074219 217.859375 56.632812 212.296875 56.632812 206.113281 Z M 300.171875 219.78125 L 307.324219 216.28125 C 311.246094 214.355469 313.65625 210.441406 313.65625 206.113281 L 313.65625 183.3125 C 313.65625 178.988281 311.246094 175.074219 307.324219 173.148438 L 300.171875 169.648438 Z M 162.855469 132.148438 C 170.902344 131.738281 178.953125 131.53125 187 131.53125 C 195.050781 131.53125 203.167969 131.738281 211.148438 132.148438 L 209.566406 127 C 208.535156 123.566406 205.371094 121.230469 201.792969 121.230469 L 172.210938 121.230469 C 168.5625 121.230469 165.46875 123.566406 164.4375 127 Z M 79.75 233.105469 C 79.75 237.433594 82.5 241.140625 86.492188 242.171875 C 109.8125 247.941406 134.921875 251.578125 161.132812 253.089844 C 162.304688 253.160156 163.40625 252.199219 163.679688 250.894531 C 164.78125 245.261719 170.148438 241.210938 176.339844 241.210938 L 197.734375 241.210938 C 203.996094 241.210938 209.292969 245.261719 210.390625 250.894531 C 210.667969 252.199219 211.699219 253.160156 212.9375 253.089844 C 239.148438 251.578125 264.191406 247.941406 287.582031 242.171875 C 291.570312 241.210938 294.324219 237.5 294.324219 233.105469 L 294.324219 157.011719 C 294.324219 152.683594 291.570312 148.976562 287.648438 147.945312 C 256.761719 140.320312 221.949219 136.269531 187.070312 136.269531 C 152.191406 136.269531 117.449219 140.320312 86.558594 147.945312 C 82.570312 148.90625 79.816406 152.617188 79.816406 157.011719 L 79.816406 233.105469 Z M 61.449219 206.113281 C 61.449219 210.441406 63.855469 214.355469 67.777344 216.28125 L 74.933594 219.78125 L 74.933594 169.578125 L 67.777344 173.082031 C 63.855469 175.003906 61.449219 178.917969 61.449219 183.246094 Z M 61.449219 206.113281 " fill-opacity="1" fill-rule="nonzero"/></g></svg>